<svg width="32" height="32" viewBox="0 0 32 32" fill="none" xmlns="http://www.w3.org/2000/svg">
<g clip-path="url(#clip0_1705_783)">
<path fill-rule="evenodd" clip-rule="evenodd" d="M16 29.3333C18.5519 29.3333 20.9364 28.6164 22.963 27.373V25.926C22.963 25.1794 22.6665 24.4635 22.1386 23.9356C21.6107 23.4077 20.8948 23.1112 20.1482 23.1112H11.8519C11.1054 23.1112 10.3894 23.4077 9.86155 23.9356C9.33367 24.4635 9.03711 25.1794 9.03711 25.926V27.3731C11.0637 28.6164 13.4481 29.3333 16 29.3333ZM29.3333 16C29.3333 19.599 27.9074 22.865 25.5896 25.2638C25.4424 24.054 24.8949 22.9206 24.0242 22.05C22.9962 21.022 21.602 20.4445 20.1482 20.4445H11.8519C10.3981 20.4445 9.00391 21.022 7.97593 22.05C7.10525 22.9207 6.55772 24.0541 6.41055 25.2639C4.09269 22.8652 2.66667 19.5991 2.66667 16C2.66667 8.6362 8.6362 2.66667 16 2.66667C23.3638 2.66667 29.3333 8.6362 29.3333 16ZM16 32C24.8366 32 32 24.8366 32 16C32 7.16344 24.8366 0 16 0C7.16344 0 0 7.16344 0 16C0 24.8366 7.16344 32 16 32ZM13.1849 13.4815C13.1849 11.9269 14.4451 10.6667 15.9997 10.6667C17.5543 10.6667 18.8145 11.9269 18.8145 13.4815C18.8145 15.0361 17.5543 16.2963 15.9997 16.2963C14.4451 16.2963 13.1849 15.0361 13.1849 13.4815ZM15.9997 8C12.9724 8 10.5182 10.4541 10.5182 13.4815C10.5182 16.5088 12.9724 18.963 15.9997 18.963C19.0271 18.963 21.4812 16.5088 21.4812 13.4815C21.4812 10.4541 19.0271 8 15.9997 8Z" fill="#3C434A"/>
</g>
<defs>
<clipPath id="clip0_1705_783">
<rect width="32" height="32" fill="white" transform="matrix(-1 0 0 1 32 0)"/>
</clipPath>
</defs>
</svg>
